<?xml version="1.0" standalone="no"?>
<!DOCTYPE svg PUBLIC "-//W3C//DTD SVG 20010904//EN"
 "http://www.w3.org/TR/2001/REC-SVG-20010904/DTD/svg10.dtd">
<svg version="1.0" xmlns="http://www.w3.org/2000/svg"
 width="102.000000pt" height="117.000000pt" viewBox="0 0 102.000000 117.000000"
 preserveAspectRatio="xMidYMid meet">

<g transform="translate(0.000000,117.000000) scale(0.100000,-0.100000)"
fill="#00cdcd" stroke="none">
<path stroke='white' stroke-width='10' d="M364 1115 c-20 -32 -47 -81 -59 -109 -21 -46 -22 -58 -14 -121 6 -38
11 -79 11 -90 1 -11 23 -42 48 -68 64 -69 71 -83 28 -61 -18 9 -62 36 -98 60
-52 34 -69 53 -87 91 -39 87 -39 95 5 160 45 66 76 100 112 125 19 13 21 17 8
17 -31 1 -125 -88 -165 -157 -29 -49 -28 -92 3 -203 l17 -61 98 -46 c55 -25
97 -47 95 -49 -1 -2 -34 1 -73 7 -41 5 -82 6 -100 1 -34 -10 -100 -77 -152
-154 -31 -46 -33 -54 -28 -107 8 -74 52 -192 83 -221 29 -27 32 -12 4 24 -40
50 -63 217 -37 263 7 12 34 38 61 59 40 30 62 39 118 47 104 14 108 7 20 -36
l-80 -39 -10 -71 c-23 -147 -23 -148 3 -205 31 -66 105 -170 122 -171 7 0 2
16 -13 37 -75 110 -101 217 -68 281 8 18 13 36 10 41 -11 17 25 71 47 71 12 0
37 9 55 20 17 11 32 19 32 17 0 -1 -7 -20 -15 -42 -56 -157 54 -331 198 -312
119 16 194 148 164 290 -6 28 -5 37 5 37 20 -1 78 -57 78 -76 0 -9 6 -30 14
-47 29 -65 27 -99 -11 -178 -19 -41 -44 -86 -54 -100 -21 -30 -23 -39 -10 -39
12 0 108 141 127 186 16 38 15 73 -7 200 l-11 60 -81 42 c-69 34 -77 41 -52
41 17 1 57 -3 89 -9 48 -8 67 -17 98 -47 21 -20 38 -45 38 -54 0 -9 6 -22 14
-28 36 -30 24 -160 -22 -241 -25 -45 -25 -45 -2 -25 41 36 90 170 90 248 0 41
-33 98 -107 181 -41 47 -43 48 -85 40 -49 -9 -136 -6 -155 4 -8 5 3 16 35 32
26 14 55 31 65 39 9 8 20 11 23 8 4 -3 19 0 33 8 21 10 32 28 45 72 25 86 34
155 21 178 -30 56 -67 105 -75 100 -6 -3 -10 -1 -10 5 0 14 -47 58 -82 76 -37
19 -36 3 1 -19 31 -18 72 -67 111 -131 26 -43 28 -91 6 -135 -7 -14 -21 -44
-32 -66 -13 -26 -25 -39 -36 -37 -17 3 -123 -52 -134 -69 -3 -5 -10 -9 -16 -9
-6 0 -4 8 4 18 9 9 23 34 31 54 8 20 24 41 35 47 21 11 38 67 45 144 4 37 -1
60 -24 107 -30 63 -88 154 -95 148 -2 -2 15 -41 37 -86 22 -44 43 -99 46 -120
7 -50 -25 -139 -70 -193 -17 -22 -41 -51 -52 -64 l-21 -25 1 26 c0 15 -5 29
-11 31 -6 2 -10 -7 -10 -19 1 -18 -4 -23 -24 -23 -20 0 -25 5 -24 23 0 12 -4
21 -10 19 -6 -2 -10 -19 -10 -38 2 -30 0 -32 -10 -15 -29 48 -88 116 -100 116
-15 0 -26 57 -29 145 -1 41 6 66 41 134 23 46 40 86 38 89 -3 2 -21 -22 -42
-53z"/>
</g>
</svg>
